{"title":"Passion Play 2011 XViD BRRip - DTRG - SAFCuk009","uid":6400888,"size":862888050,"categoryP":"video","categoryS":"movies","magnet":"?xt=urn:btih:94f304faa09bf5bdfc58bda8bb4f48101072885a&amp;dn=Passion+Play+2011+XViD+BRRip+-+DTRG+-+SAFCuk009&amp;tr=udp%3A%2F%2Ftracker.openbittorrent.com%3A80&amp;tr=udp%3A%2F%2Fopen.demonii.com%3A1337&amp;tr=udp%3A%2F%2Ftracker.coppersurfer.tk%3A6969&amp;tr=udp%3A%2F%2Fexodus.desync.com%3A6969","seeders":0,"leechers":1,"uploader":"SAFCukO09","files":3,"time":1305659451,"description":"Format : AVI\nFormat/Info : Audio Video Interleave\nFile size : 823 MiB\nDuration : 1h 34mn\nOverall bit rate : 1 221 Kbps\nWriting application : VirtualDubMod 1.5.10.3 | www.virtualdub-fr.org || (build 2550/release)\nWriting library : VirtualDubMod build 2550/release\n\nVideo\nID : 0\nFormat : MPEG-4 Visual\nFormat profile : Advanced Simple@L5\nFormat settings, BVOP : 2\nFormat settings, QPel : No\nFormat settings, GMC : No warppoints\nFormat settings, Matrix : Default (H.263)\nMuxing mode : Packed bitstream\nCodec ID : XVID\nCodec ID/Hint : XviD\nDuration : 1h 34mn\nBit rate : 1 084 Kbps\nWidth : 672 pixels\nHeight : 288 pixels\nDisplay aspect ratio : 2.35:1\nFrame rate : 23.976 fps\nColor space : YUV\nChroma subsampling : 4:2:0\nBit depth : 8 bits\nScan type : Progressive\nCompression mode : Lossy\nBits/(Pixel*Frame) : 0.234\nStream size : 730 MiB (89%)\nWriting library : XviD 63\n\nAudio\nID : 1\nFormat : MPEG Audio\nFormat version : Version 1\nFormat profile : Layer 3\nMode : Joint stereo\nMode extension : MS Stereo\nCodec ID : 55\nCodec ID/Hint : MP3\nDuration : 1h 34mn\nBit rate mode : Constant\nBit rate : 128 Kbps\nChannel(s) : 2 channels\nSampling rate : 48.0 KHz\nCompression mode : Lossy\nStream size : 86.3 MiB (10%)\nAlignment : Split accross interleaves\nInterleave, duration : 42 ms (1.00 video frame)\nInterleave, preload duration : 500 ms\nWriting library : LAME3.97\n\n\n\n &lt;a href=&quot;\nhttp://www.imdb.com/title/tt1396221/&quot; rel=&quot;nofollow&quot; target=&quot;_NEW&quot;&gt;\nhttp://www.imdb.com/title/tt1396221/&lt;/a&gt;\n\n\n\n\n\n\n\nUsers: 4.8/10 (295 votes) 5 reviews | Critics: 10 reviews Metascore: 22/100 (based on 11 reviews from Metacritic.com)\n\nAn angel under the thumb of a ruthless gangster is saved by a trumpet player down on his luck.\nDirector:\nMitch Glazer\nWriter:\nMitch Glazer (screenplay)\nStars:\nMickey Rourke, Megan Fox and Bill Murray\n\n\n\n\n\n\n\n\n\n\n\n\n\n\n\n\nSource Used\n\nPassion Play 2011 BluRay 720p DTS x264-CHD .....Thanks\n\nSmall sized brrip ....good quality though\n\n\n\nGreetz to IMAGiNE,Flawl3ss,DiLLoN,BDK,NOiR,TOXiCiNK,THC,Ez,Rx,Boobyblue,TaRiQ786,LKRG,CrEwSaDe","torrent":{"xt":"urn:btih:94f304faa09bf5bdfc58bda8bb4f48101072885a","amp;dn":"Passion+Play+2011+XViD+BRRip+-+DTRG+-+SAFCuk009","amp;tr":["udp%3A%2F%2Ftracker.openbittorrent.com%3A80","udp%3A%2F%2Fopen.demonii.com%3A1337","udp%3A%2F%2Ftracker.coppersurfer.tk%3A6969","udp%3A%2F%2Fexodus.desync.com%3A6969"],"infoHash":"94f304faa09bf5bdfc58bda8bb4f48101072885a","infoHashBuffer":{"type":"Buffer","data":[148,243,4,250,160,155,245,189,252,88,189,168,187,79,72,16,16,114,136,90]},"announce":[],"urlList":[]}}